<?xml version="1.0" standalone="no"?>
<!DOCTYPE svg PUBLIC "-//W3C//DTD SVG 20010904//EN"
 "http://www.w3.org/TR/2001/REC-SVG-20010904/DTD/svg10.dtd">
<svg class="logo-frame-img" width="100" height="100" xmlns="http://www.w3.org/2000/svg" preserveAspectRatio="xMidYMid meet">
  <g>
    <rect x="-1" y="-1" width="102" height="102" id="canvas_background" fill="none"/>
  </g>
  <g>
    <g transform="translate(0,100) scale(0.10000000149011612,-0.10000000149011612) " fill="#3359DF" id="svg_1">
    <path d="m420,925l-62,-75l-106,2l-107,3l3,-107l2,-107l-75,-63c-41,-34 -75,-70 -75,-79c0,-9 34,-44 75,-79l75,-62l-2,-106l-3,-107l107,3l107,2l63,-75c34,-41 70,-75 79,-75c9,0 44,34 79,75l62,75l106,-2l107,-3l-3,107l-2,107l75,63c41,34 75,70 75,79c0,9 -34,44 -75,79l-75,62l2,106l3,107l-107,-3l-107,-2l-63,75c-34,41 -70,75 -79,75c-9,0 -44,-34 -79,-75zm113,-91l29,-35l34,20c20,12 39,21 43,21c4,0 13,-18 20,-41c12,-40 12,-40 58,-38l46,3l1,-49c1,-47 2,-49 36,-58c19,-5 36,-10 38,-12c2,-2 -6,-21 -17,-43l-21,-40l38,-31l37,-30l-37,-31l-37,-31l19,-32c28,-45 25,-54 -17,-64c-37,-9 -38,-10 -39,-58l-1,-48l-48,-1c-47,-1 -49,-2 -58,-36c-5,-19 -10,-36 -12,-38c-2,-2 -21,6 -43,17l-40,21l-31,-38l-30,-37l-31,37l-31,37l-35,-19c-47,-27 -51,-26 -61,18c-9,36 -10,37 -58,38l-48,1l-1,48c-1,47 -2,49 -36,58c-19,5 -36,10 -38,12c-2,2 6,21 17,43l21,41l-37,30l-38,31l38,31l38,31l-21,35c-27,46 -26,50 18,60c36,9 37,10 38,58l1,48l48,1c47,1 49,2 58,36c5,19 10,36 12,38c2,2 21,-6 44,-17l40,-21l28,35c15,19 30,35 33,35c3,0 18,-16 33,-36z" id="svg_2"/>
    </g>
  </g>
</svg>